<?xml version="1.0" encoding="utf-8"?>
<!-- Generator: Adobe Illustrator 25.0.1, SVG Export Plug-In . SVG Version: 6.00 Build 0)  -->
<svg version="1.1" id="Layer_1" xmlns="http://www.w3.org/2000/svg" xmlns:xlink="http://www.w3.org/1999/xlink" x="0px" y="0px"
	 viewBox="0 0 501.66 214" style="enable-background:new 0 0 501.66 214;" xml:space="preserve">
<style type="text/css">
	.st0{fill-rule:evenodd;clip-rule:evenodd;fill:#203D7F;}
	.st1{fill:#203D7F;}
</style>
<rect x="5.1" y="150.05" class="st0" width="491.72" height="7.38"/>
<path class="st1" d="M406.95,187.12v-7.03c-3.27,1.35-6.25,2.08-9.43,2.59v1.42c3.56,0.53,3.9,0.78,3.9,4.79v13.02
	c0,4.13-0.56,4.51-4.41,4.89v1.67h15.22v-1.67c-4.98-0.38-5.27-0.76-5.27-4.89V190.7c1.36-3.36,3.3-5.17,4.94-5.17
	c1.07,0,1.8,0.38,2.78,1.26c0.38,0.34,0.94,0.45,1.71,0.16c1.38-0.64,2.24-1.92,2.24-3.38c0-1.54-1.55-3.21-3.87-3.21
	c-2.96-0.04-5.58,3.33-7.69,6.77H406.95z M375.13,182.37c5.36,0,8.37,5.76,8.37,13.3c0,8.82-3.3,11.31-6.99,11.31
	c-5.16,0-8.59-5.8-8.59-13.77c0-7.1,3.43-10.84,7.12-10.84H375.13z M375.82,180.35c-6.05,0-14.46,4.73-14.46,15.02
	c0,6.93,5.32,13.82,14.46,13.82c6.47,0,14.18-4.82,14.18-14.97c0-7.62-5.99-13.86-14.14-13.86H375.82z M344.79,203.07
	c-1.54,1.04-3.69,1.98-5.79,1.98c-3.95,0-8.73-3.43-8.73-10.94c0-9.11,5.33-11.38,8.04-11.38c2.45,0,4.94,1.07,6.47,3.25V203.07z
	 M355.18,205.18l-1.8-0.18c-2.58-0.25-3.05-0.56-3.05-3.98v-37.2c-2.53,0.82-6.9,1.77-10.47,2.21v1.64
	c4.51,0.31,4.94,0.47,4.94,4.54v8.83c-1.54-0.53-3.22-0.7-4.12-0.7c-8.89,0-16.7,6.75-16.7,15.47c0,8.81,6.83,13.36,12.15,13.36
	c0.69,0,2.36-0.35,4.89-1.8l3.78-2.24v4.04c4.03-1.29,9.01-2.11,10.39-2.37V205.18z M317.24,208.48v-1.67
	c-4.04-0.47-4.47-0.81-4.47-5.16v-21.48c-2.87,1.13-6.09,1.86-9.52,2.42v1.51c3.78,0.64,3.98,0.94,3.98,4.89v12.66
	c0,4.39-0.47,4.78-4.45,5.16v1.67H317.24z M309.52,175.06c1.96,0,3.43-1.58,3.43-3.4c0-2.01-1.46-3.52-3.34-3.52
	c-1.89,0-3.52,1.51-3.52,3.52C306.09,173.48,307.72,175.06,309.52,175.06z M298.14,181.06h-11.38v1.67c3.56,0.47,3.9,1.2,2.96,4.04
	c-1.38,4.04-3.47,9.8-5.54,14.58c-1.76-4.13-4.38-10.8-5.96-14.97c-1.03-2.71-0.86-3.13,2.58-3.65v-1.67h-13.7v1.67
	c3.4,0.56,4,1.07,5.45,4.51c3.05,7.27,6.01,14.37,9.01,21.95h1.8c3.62-9.35,7-17.13,9.19-21.73c1.66-3.66,2.21-4.26,5.6-4.73V181.06
	z M249.98,187.12v-7.03c-3.27,1.35-6.25,2.08-9.43,2.59v1.42c3.56,0.53,3.9,0.78,3.9,4.79v13.02c0,4.13-0.56,4.51-4.41,4.89v1.67
	h15.22v-1.67c-4.98-0.38-5.27-0.76-5.27-4.89V190.7c1.36-3.36,3.3-5.17,4.94-5.17c1.07,0,1.8,0.38,2.78,1.26
	c0.38,0.34,0.94,0.45,1.71,0.16c1.38-0.64,2.24-1.92,2.24-3.38c0-1.54-1.55-3.21-3.87-3.21c-2.96-0.04-5.58,3.33-7.69,6.77H249.98z
	 M221.75,182.73c3.35,0,5.41,3.03,5.41,6.33c0,0.82-0.38,1.16-1.49,1.2c-3.56,0.13-6.96,0.13-10.34,0.13
	c0.89-5.23,3.65-7.66,6.39-7.66H221.75z M231.71,201.49c-2.31,2.14-4.76,3.13-7.38,3.13c-4.42,0-9.19-3.43-9.32-11.54
	c7.38-0.25,15.37-0.89,16.52-1.07c1.16-0.26,1.51-0.82,1.51-2.02c0-4.97-4.34-9.64-9.79-9.64h-0.04c-3.4,0-6.87,1.8-9.62,4.81
	c-2.58,2.78-4.09,6.56-4.09,10.72c0,6.99,4.64,13.29,12.51,13.29c2.05,0,6.65-1.11,10.77-6.3L231.71,201.49z M198.83,177.16
	c-0.56-4.06-0.85-6.62-1.11-8.85c-2.39-0.85-5.27-1.58-8.34-1.58c-8.41,0-13.46,5.19-13.46,11.45c0,6.9,6.14,10.04,10.62,12.26
	c4.92,2.56,8.37,4.72,8.37,9.26c0,4.5-2.75,7.37-7.46,7.37c-6.61,0-9.73-6.55-10.8-10.55l-1.93,0.56c0.4,3.05,1.33,8.76,1.76,9.99
	c0.65,0.31,1.55,0.82,3.18,1.33c1.63,0.56,3.78,1.04,6.46,1.04c8.79,0,14.5-5.36,14.5-12.1c0-6.9-5.63-9.86-11.1-12.52
	c-5.26-2.52-8.23-4.67-8.23-9.08c0-3.43,2.29-6.81,7.12-6.81c5.44,0,7.4,4.54,8.51,8.57L198.83,177.16z M134.46,182.37
	c5.36,0,8.37,5.76,8.37,13.3c0,8.82-3.3,11.31-6.99,11.31c-5.16,0-8.59-5.8-8.59-13.77c0-7.1,3.43-10.84,7.12-10.84H134.46z
	 M135.15,180.35c-6.05,0-14.46,4.73-14.46,15.02c0,6.93,5.32,13.82,14.46,13.82c6.47,0,14.18-4.82,14.18-14.97
	c0-7.62-5.99-13.86-14.14-13.86H135.15z M104.13,203.07c-1.54,1.04-3.69,1.98-5.79,1.98c-3.95,0-8.73-3.43-8.73-10.94
	c0-9.11,5.33-11.38,8.04-11.38c2.45,0,4.94,1.07,6.47,3.25V203.07z M114.51,205.18l-1.8-0.18c-2.58-0.25-3.05-0.56-3.05-3.98v-37.2
	c-2.53,0.82-6.9,1.77-10.47,2.21v1.64c4.51,0.31,4.94,0.47,4.94,4.54v8.83c-1.54-0.53-3.22-0.7-4.12-0.7
	c-8.89,0-16.7,6.75-16.7,15.47c0,8.81,6.83,13.36,12.14,13.36c0.69,0,2.36-0.35,4.89-1.8l3.78-2.24v4.04
	c4.03-1.29,9.01-2.11,10.39-2.37V205.18z"/>
<path class="st0" d="M85.06,45.55L87.24,55c0.81,3.13,1.49,6.3,2.31,9.56l4.6,19.16H75.58l8.16-33.33c0.24-0.85,0.38-1.48,0.58-2.38
	C84.58,46.89,84.63,46.4,85.06,45.55 M398.56,45.55l9.08,38.17h-18.56L398.56,45.55z M361.31,120.63l0-0.43
	c0-23.3-0.18-46.58-0.2-69.92c0-2.98,0.21-4.7,0.2-7.43c-0.02-5.61-0.03-10,0.59-14.53c7.35-2.93,7.11,2.45,7.11-7.77
	c0-0.7-0.1-1.13-0.23-1.5h-21.84c-0.44,1.06-0.24,0.84-0.24,5.89c0,4.89,6.52,0.58,7.35,4.31c0.84,3.77,0.55,67.27,0.55,73.38
	c-0.71-0.81-2.35-4.43-3.11-5.83l-1.46-2.9c-0.5-1.06-0.97-2.15-1.5-3.17l-6.03-12.31c-7.47-15.86-16.54-33.68-23.52-49.62
	c-0.49-1.13-0.85-2.01-1.36-3.08l-2.89-6.54l-0.07-0.13h-18.54c-0.1,0.26-0.17,0.55-0.17,0.83c0,9.58-0.35,6.67,4.78,7.7
	c1.46,0.29,1.44,0.03,2.29,1.49c0.53,0.92,1.23,1.7,1.23,3.31c0,4,0.43,80.25-0.53,86.58c-0.25,1.68-0.57,1.7-1.6,1.99
	c-0.83,0.23-2.03,0.41-3.19,0.51v9.28c1.43-0.02,3.15-0.4,4.34-0.4c4.02,0,9.23-0.27,13.05,0.33c2.93,0.46,2.35-1.44,2.35-7.42
	c0-0.81-0.32-0.99-0.59-1.69c-2.61,0-4.74-0.76-6.52-1.01c-0.69-5.09-0.6-8.26-0.59-13.52c0.01-2.16-0.2-2.76-0.21-4.71
	c-0.14-19.39,0.01-40.28,0.01-59.8c1.07,1.23,18.68,38.63,21.38,43.82c0.72,1.38,1.26,2.68,1.98,4.05
	c4.84,9.29,11.44,25.2,15.4,32.43c2.02,3.69,3.5,6.38,4.01,6.97c0.25,0.28,5.47,0.3,7.15,0.15c0.21,0.12,0.42,0.23,0.64,0.33V120.63
	z M433.88,122.24c-1.32-0.41-3.56-0.73-4.58-2.27c-1.16-1.74-4.87-16.9-5.72-20.28c-2.35-9.4-4.65-18.48-6.97-27.93
	c-3.71-15.16-8.24-33.84-12.2-49.05c-0.42-1.61-0.68-2.79-0.9-3.65h-5.65c-0.4,1.35-0.73,3-0.98,4.06
	c-2.49,10.71-5.55,21.96-8.09,32.43l-5.65,21.75c-2.09,7.97-5.33,20.84-7.5,28.38l-2.92,10.53c-1.45,4.05-6.22,4.51-10.92,4.81v9.44
	c4.32,1.54,10.98-0.8,13.72-2.21c2.15,0.61,12.96,5.68,12.96-0.29c0-8.73-0.25-6.07-3.47-6.9c-4.73-1.21-6.33,3.5-0.15-20.24
	c0.5-1.9,1.18-4.32,1.45-6.3h24.29c0.65,4.77,5.53,20.83,5.53,26.01c-0.86,0.03-0.7,0.26-1.58,0.34c-0.64,0.06-1.33-0.07-1.97,0.01
	c-1.16,0.16-2.12,0.32-3.56,0.32c-0.94,2.41-0.59,1.36-0.59,7.77c0,0.81,0.32,0.99,0.59,1.69c3.45,0,8.45-1.61,12.8-1.82
	c5.45-0.26,10.09,4.83,12.06,1.11V122.24z M429.59,20.56c0,5.37-0.41,6.79,1.96,6.77c1.45-0.01,2.15,0.3,3.37,0.32
	c3.61,0.07,2.83,1.39,3.28,6.56c0.33,3.8-0.13,8.1,0.2,11.82c0.13,1.48,0.25,59.63-0.14,65.67c-0.21,3.2,0.05,6.75-1.23,8.37
	c-1.27,1.61-2.1,1.87-2.64,2.35l-0.01-0.01v7.98c1.07,0.73,3-0.07,4.89-0.07c7.6,0,35.25,0.96,39.56-0.23
	c1.14-0.32,2.01-0.33,2.38-2.01l1.11-16.34c0.24-3.76,1.08-8.9,0.59-12.5c-1.18-0.97-2.2-0.67-3.75-0.67c-1.23,0-1.45,1.34-1.7,3.17
	l-2.26,14.72c-0.45,0.99-1.88,1.12-2.75,1.37c-6.1,1.74-14.04,1.35-20.34,1.35c-1.2,0-1.44-0.34-2.57-0.34l-0.01-79.05
	c0-1.96,0.18-2.3,0.21-4.03c0.13-7.73-0.54-7.94,5.13-8.46c3.64-0.33,3.56,1.01,3.56-6.41c0-0.84-0.1-1.43-0.29-1.84h-28.31
	C429.69,19.43,429.59,19.86,429.59,20.56z M165.88,45.22c-0.03,0.54-0.03,0.45-0.09,0.86c-0.18,1.4-0.37,1.3-0.85,1.58
	c-0.49,0.28-4,1.17-4.35-1.85c-0.18-1.56-0.2-3.3-0.24-4.99l-0.59-9.8l-14.81-1.01c0,3.24-0.2,5.16-0.2,8.44v67.89
	c0,14.1-0.1,14.93,4.15,14.86c1.44-0.02,2.34,0.34,3.95,0.34c0.27,0.7,0.59,0.88,0.59,1.69c0,6.33,0.33,5.08-0.59,7.43
	c-3.6,0-18-0.33-20.62-2.01c-1.74,0.39-3.76,1.91-4.8,2.01c-2.43,0.22-2.42-0.36-2.42-6.75c0-4.7,5.98-1.25,7.98-3.58
	c0.55-0.64,0.62-2.02,0.68-3.23c0.34-6.18,0.23-5.8,0.23-12.11l0.01-3.06H122.6l-0.38,28.64h-1.71c-0.19,0.04-0.42,0.03-0.7,0h-0.7
	l0.01-0.1c-0.5-0.07-1.12-0.15-1.87-0.16c-1.99-0.03-3.41-0.32-5.54-0.32c-3.32,0-6.15,0.34-9.28,0.34c-4.02,0-7.7,1.86-7.7-2.36
	c0-8.81,0.31-6.11,3.5-6.85c5.34-1.24,5.7,2.93,1.69-14.19l-2.82-12.4H72.82l-4.52,18.62c-0.53,2.21-1.01,4-1.01,7.05
	c2,0.8,4.46,1.01,6.91,1.01c0.46,1.17,0.79,1.28,0.79,3.38c0,4.4,0.19,3.57-0.79,6.08c-2.67,0-4.62-0.34-7.31-0.34
	c-11.04,0-21.74,1.35-32.61-2.8l-10.47,3.15c-2.61,0.13-4.94,0.76-4.94-2.38v-4.55c0.07-0.69,0.23-1.28,0.59-2.21
	c1.6,0,6.79-0.25,7.45-1.44c0.76-1.37,0.64-9.69,0.64-12.75c0-9.2,0.2-17.87,0.2-27.36c0-5.69,0.23-46.57-0.63-50.59
	c-0.47-2.2-4.76-2.11-6.09-2.09c-1.33,0.03-2.16-0.16-2.16-2.38V20.4c0.04-0.45,0.13-0.86,0.28-1.35h39.8
	c0.52,0.18,1.02,0.39,1.51,0.63c6.4,3.13,11.34,11.81,11.34,23.85c0,21.57-11.2,35.8-21.72,35.8c-1.96,0-5.39-0.32-7-1.2
	c-1.23-0.67-1.89-7.5-1.89-8.26c0-0.29,0.82-1.69,0.99-1.69c0.84,0,2.32,0.78,3.33,1.07c3.07,0.88,5.51,0.98,8.33-1.4
	c1.16-0.98,2.61-2.66,3.39-4.34c4.43-9.59,4.53-28.82-4.45-34.05c-4.74-2.76-9.38-1.26-13.95,0.55c0,4.56-0.2,7.9-0.2,12.5v59.11
	c0,16.21,6.02,20.19,13.86,21.07c0.23-0.09,5.36-2.95,5.67-3.6c0.78-1.61,3.51-11.5,4.03-13.71l10.3-39.13
	c0.65-2.6,1.21-4.69,1.86-7.29c3.02-12.01,6.27-23.97,9.09-36.14c0.33-1.42,0.58-2.74,0.87-3.77h5.68l0.03,0.13l14.85,59.71
	c0.6,2.4,1.13,4.58,1.72,6.86l7.05,27.81c1.76,6.27,1.67,7.41,5.15,7.61l2.31-22.86h0.79h0.93h11.09l0.17-48.71
	c0-2.65-0.2-4.12-0.2-6.41c0-4.83-0.19-8.61-0.19-13.19h-8.1c-2.42,0-4.59,0.68-6.72,0.68c-1.45,10.69,0.12,17.23-3.16,17.23
	c-2.44,0-1.93,0.28-3.36-1.35c0-4.78,0.02-9.58-0.19-13.87c-0.11-2.24,0.06-4.81-0.01-7.08c-0.07-2.07-0.2-3.83-0.16-6.34l0.11-0.22
	h18.8c1.79,0.08,3.59,0.15,5.53,0.15l5.37-0.15h24.25L165.88,45.22z M232.54,103.73l-0.35,26.86h-1.24c-0.18,0.03-0.4,0.02-0.64,0
	l-8.43-0.85c-3.21,1.37-3.45,2.26-5.57-2.18l-6.92-15.86c-3.29-8.26-6.79-15.93-10.39-23.77c-0.53-1.14-7.22-14.41-7.22-15.35
	c0-1.69,0.39-4.31,1.42-4.67c1.35-0.47,13.1,3.37,17.48-10.64c1.79-5.73,2.13-14.64,0.15-20.31c-3.76-10.78-13.35-9.45-19.64-6.94
	c0,1.97-0.21,2.8-0.2,5.06c0.01,1.63,0.06,3.37-0.08,4.93l-0.31,20.07c0,19.57-0.03,37.45,0.4,57.08c0.05,2.4,0.25,3.2,1.42,3.65
	c1.4,0.54,4.8,0.74,6.48,0.74c0.27,0.7,0.59,0.88,0.59,1.69c0,7.05,0.49,7.79-3.16,7.43c-5.49,0.09-9.55,2.13-19.26-1.44
	c-2.12,1.63-3.2,1.44-5.42,1.44c-0.27-0.7-0.59-0.88-0.59-1.69c0-6.33-0.33-5.08,0.59-7.43c1.3,0,6.88-0.1,7.5-1.71
	c1.04-2.7,0.62-70.94,0.61-79.71l-0.38-9.48c-0.23-2.18-0.23-2.24-1.54-2.77l-6.15-0.27v-8.57h39.5c2.23,0.69,4.28,1.75,5.82,3.33
	c5.09,5.26,7.38,14.52,6.77,25.15c-0.53,9.1-4.51,17.51-8.87,21.99c-1.68,1.73-3.81,3.32-5.74,4.37c-0.67,0.36-1.38,0.58-1.95,1.05
	l5.76,13.12c0.51,1.16,0.89,2.1,1.44,3.28l13.18,29.14c0.52,0.87,0.18,0.97,0.96,0.99c0.24-3.99,2.91-22.09,2.42-24.45
	c-1.62-7.88-2.11-14.86-2.11-24.44c0-17.61,4.26-33,12.27-43.87c5.94-8.05,13.61-12.88,21.7-12.88c8.47,0,14.97,1.52,21.98,8.67
	c8.64,8.81,13.96,25.72,13.96,43.35c0,11.21-0.42,20.38-3.22,29.95c-1.17,4-3.28,10.38-5.12,13.54c-0.51,0.87-0.56,1.11-1,2.01
	c-1.04,2.13-4.2,6.73-5.71,8.48c-0.9,1.04-1.69,1.94-2.67,2.87c-4.69,4.46-10.85,8.11-16.45,8.01c-2.67-0.05-5.29,0.17-8.06-0.4
	C245.71,130.09,237.09,119.89,232.54,103.73z M244.23,98.32l1.06,3.62c0.46,1.43,0.95,2.72,1.44,3.84
	c1.78,4.03,4.27,8.67,6.97,11.05c1.56,1.37,2.85,2.52,4.74,3.38c5.05,2.28,12.49,1.89,16.83-2.64c0.68-0.71,1.19-1.07,1.85-1.9
	c1.85-2.3,2.81-3.83,4.26-6.91c2.98-6.34,5.3-18.33,5.3-29.77v-6.76c0-12.66-2.48-25.47-7.23-34.24l-0.81-1.31
	c-1.88-3.02-3.16-4.54-5.72-6.43c-8.8-6.5-19.76-4.76-26.67,7.95c-1.7,3.13-3.14,8.17-4.02,12.71c-1.26,6.43-1.55,11.72-1.55,19.3
	C240.66,79.77,242.14,90.39,244.23,98.32z"/>
<path class="st0" d="M476.05,28.83c4.84,0,8.77,3.92,8.77,8.77s-3.92,8.77-8.77,8.77c-4.84,0-8.77-3.92-8.77-8.77
	S471.21,28.83,476.05,28.83 M473.24,36.73h1.7c1.1,0,1.79-0.05,2.06-0.14c0.27-0.09,0.49-0.25,0.64-0.48
	c0.16-0.23,0.23-0.51,0.23-0.85c0-0.38-0.1-0.69-0.31-0.93c-0.2-0.24-0.49-0.38-0.86-0.45c-0.19-0.03-0.75-0.04-1.68-0.04h-1.79
	V36.73z M470.94,43.29V31.92h4.84c1.22,0,2.1,0.1,2.65,0.31c0.55,0.2,0.99,0.57,1.32,1.09c0.33,0.52,0.5,1.12,0.5,1.79
	c0,0.85-0.25,1.56-0.75,2.11c-0.5,0.56-1.25,0.91-2.24,1.05c0.49,0.29,0.9,0.61,1.22,0.95c0.32,0.35,0.76,0.96,1.3,1.85l1.39,2.22
	h-2.75l-1.65-2.48c-0.59-0.88-1-1.44-1.21-1.67c-0.22-0.23-0.45-0.39-0.69-0.47c-0.25-0.09-0.63-0.13-1.16-0.13h-0.47v4.75H470.94z
	 M476.05,26.56c6.1,0,11.04,4.94,11.04,11.04c0,6.1-4.94,11.04-11.04,11.04c-6.1,0-11.04-4.94-11.04-11.04
	C465.01,31.5,469.95,26.56,476.05,26.56z"/>
</svg>
