<?xml version="1.0" encoding="utf-8"?>
<!-- Generator: Adobe Illustrator 24.0.1, SVG Export Plug-In . SVG Version: 6.00 Build 0)  -->
<svg version="1.1" id="Layer_1" xmlns="http://www.w3.org/2000/svg" xmlns:xlink="http://www.w3.org/1999/xlink" x="0px" y="0px"
	 viewBox="0 0 196.77 71.49" style="enable-background:new 0 0 196.77 71.49;" xml:space="preserve">
<style type="text/css">
	.st0{fill-rule:evenodd;clip-rule:evenodd;fill:#FFFFFF;}
	.st1{fill:#FFFFFF;}
</style>
<g>
	<rect x="1.6" y="54" class="st0" width="193.56" height="2.91"/>
	<path class="st1" d="M134.33,64.63v-1.62c-0.75,0.31-1.44,0.48-2.17,0.6v0.33c0.82,0.12,0.9,0.18,0.9,1.1v3
		c0,0.95-0.13,1.04-1.02,1.13v0.38h3.51v-0.38c-1.15-0.09-1.22-0.18-1.22-1.13v-2.59c0.31-0.77,0.76-1.19,1.14-1.19
		c0.25,0,0.42,0.09,0.64,0.29c0.09,0.08,0.22,0.1,0.4,0.04c0.32-0.15,0.52-0.44,0.52-0.78c0-0.35-0.36-0.74-0.89-0.74
		c-0.68-0.01-1.29,0.77-1.77,1.56H134.33z M127,63.54c1.24,0,1.93,1.33,1.93,3.07c0,2.03-0.76,2.61-1.61,2.61
		c-1.19,0-1.98-1.34-1.98-3.17c0-1.64,0.79-2.5,1.64-2.5H127z M127.16,63.07c-1.39,0-3.33,1.09-3.33,3.46c0,1.6,1.23,3.18,3.33,3.18
		c1.49,0,3.27-1.11,3.27-3.45c0-1.76-1.38-3.19-3.26-3.19H127.16z M120.01,68.31c-0.35,0.24-0.85,0.46-1.33,0.46
		c-0.91,0-2.01-0.79-2.01-2.52c0-2.1,1.23-2.62,1.85-2.62c0.56,0,1.14,0.25,1.49,0.75V68.31z M122.4,68.8l-0.42-0.04
		c-0.59-0.06-0.7-0.13-0.7-0.92v-8.57c-0.58,0.19-1.59,0.41-2.41,0.51v0.38c1.04,0.07,1.14,0.11,1.14,1.05v2.04
		c-0.35-0.12-0.74-0.16-0.95-0.16c-2.05,0-3.85,1.56-3.85,3.57c0,2.03,1.57,3.08,2.8,3.08c0.16,0,0.54-0.08,1.13-0.42l0.87-0.52
		v0.93c0.93-0.3,2.08-0.49,2.39-0.55V68.8z M113.66,69.56v-0.38c-0.93-0.11-1.03-0.19-1.03-1.19v-4.95
		c-0.66,0.26-1.4,0.43-2.19,0.56v0.35c0.87,0.15,0.92,0.22,0.92,1.13v2.92c0,1.01-0.11,1.1-1.03,1.19v0.38H113.66z M111.88,61.85
		c0.45,0,0.79-0.36,0.79-0.78c0-0.46-0.34-0.81-0.77-0.81c-0.44,0-0.81,0.35-0.81,0.81C111.09,61.49,111.46,61.85,111.88,61.85z
		 M109.26,63.24h-2.62v0.38c0.82,0.11,0.9,0.28,0.68,0.93c-0.32,0.93-0.8,2.26-1.28,3.36c-0.41-0.95-1.01-2.49-1.37-3.45
		c-0.24-0.62-0.2-0.72,0.59-0.84v-0.38h-3.16v0.38c0.78,0.13,0.92,0.25,1.26,1.04c0.7,1.67,1.38,3.31,2.08,5.06h0.42
		c0.83-2.15,1.61-3.95,2.12-5.01c0.38-0.84,0.51-0.98,1.29-1.09V63.24z M98.16,64.63v-1.62c-0.75,0.31-1.44,0.48-2.17,0.6v0.33
		c0.82,0.12,0.9,0.18,0.9,1.1v3c0,0.95-0.13,1.04-1.02,1.13v0.38h3.51v-0.38c-1.15-0.09-1.22-0.18-1.22-1.13v-2.59
		c0.31-0.77,0.76-1.19,1.14-1.19c0.25,0,0.42,0.09,0.64,0.29c0.09,0.08,0.22,0.1,0.4,0.04c0.32-0.15,0.52-0.44,0.52-0.78
		c0-0.35-0.36-0.74-0.89-0.74c-0.68-0.01-1.29,0.77-1.77,1.56H98.16z M91.65,63.62c0.77,0,1.25,0.7,1.25,1.46
		c0,0.19-0.09,0.27-0.34,0.28c-0.82,0.03-1.6,0.03-2.38,0.03c0.21-1.21,0.84-1.77,1.47-1.77H91.65z M93.95,67.95
		c-0.53,0.49-1.1,0.72-1.7,0.72c-1.02,0-2.12-0.79-2.15-2.66c1.7-0.06,3.54-0.21,3.81-0.25c0.27-0.06,0.35-0.19,0.35-0.47
		c0-1.14-1-2.22-2.26-2.22h-0.01c-0.78,0-1.58,0.42-2.22,1.11c-0.59,0.64-0.94,1.51-0.94,2.47c0,1.61,1.07,3.06,2.88,3.06
		c0.47,0,1.53-0.26,2.48-1.45L93.95,67.95z M86.37,62.34c-0.13-0.94-0.2-1.53-0.26-2.04c-0.55-0.2-1.22-0.36-1.92-0.36
		c-1.94,0-3.1,1.2-3.1,2.64c0,1.59,1.41,2.31,2.45,2.83c1.13,0.59,1.93,1.09,1.93,2.13c0,1.04-0.63,1.7-1.72,1.7
		c-1.52,0-2.24-1.51-2.49-2.43l-0.45,0.13c0.09,0.7,0.31,2.02,0.4,2.3c0.15,0.07,0.36,0.19,0.73,0.31c0.37,0.13,0.87,0.24,1.49,0.24
		c2.03,0,3.34-1.24,3.34-2.79c0-1.59-1.3-2.27-2.56-2.89c-1.21-0.58-1.9-1.08-1.9-2.09c0-0.79,0.53-1.57,1.64-1.57
		c1.25,0,1.71,1.05,1.96,1.98L86.37,62.34z M71.53,63.54c1.24,0,1.93,1.33,1.93,3.07c0,2.03-0.76,2.61-1.61,2.61
		c-1.19,0-1.98-1.34-1.98-3.17c0-1.64,0.79-2.5,1.64-2.5H71.53z M71.69,63.07c-1.39,0-3.33,1.09-3.33,3.46
		c0,1.6,1.23,3.18,3.33,3.18c1.49,0,3.27-1.11,3.27-3.45c0-1.76-1.38-3.19-3.26-3.19H71.69z M64.54,68.31
		c-0.35,0.24-0.85,0.46-1.33,0.46c-0.91,0-2.01-0.79-2.01-2.52c0-2.1,1.23-2.62,1.85-2.62c0.56,0,1.14,0.25,1.49,0.75V68.31z
		 M66.94,68.8l-0.42-0.04c-0.59-0.06-0.7-0.13-0.7-0.92v-8.57c-0.58,0.19-1.59,0.41-2.41,0.51v0.38c1.04,0.07,1.14,0.11,1.14,1.05
		v2.04c-0.35-0.12-0.74-0.16-0.95-0.16c-2.05,0-3.85,1.56-3.85,3.57c0,2.03,1.57,3.08,2.8,3.08c0.16,0,0.54-0.08,1.13-0.42
		l0.87-0.52v0.93c0.93-0.3,2.08-0.49,2.39-0.55V68.8z"/>
	<path class="st0" d="M33.07,12.86l0.86,3.72c0.32,1.23,0.58,2.48,0.91,3.76l1.81,7.54h-7.31l3.21-13.12
		c0.09-0.33,0.15-0.58,0.23-0.94C32.89,13.39,32.91,13.2,33.07,12.86 M156.48,12.86l3.58,15.02h-7.31L156.48,12.86z M141.82,42.42
		l0-0.17c0-9.17-0.07-18.34-0.08-27.52c0-1.17,0.08-1.85,0.08-2.92c-0.01-2.21-0.01-3.94,0.23-5.72c2.89-1.15,2.8,0.96,2.8-3.06
		c0-0.28-0.04-0.45-0.09-0.59h-8.6c-0.17,0.42-0.1,0.33-0.1,2.32c0,1.92,2.57,0.23,2.89,1.7c0.33,1.48,0.21,26.48,0.21,28.88
		c-0.28-0.32-0.93-1.74-1.22-2.29l-0.58-1.14c-0.2-0.42-0.38-0.85-0.59-1.25l-2.37-4.85c-2.94-6.24-6.51-13.26-9.26-19.53
		c-0.19-0.44-0.33-0.79-0.54-1.21l-1.14-2.58l-0.03-0.05h-7.3c-0.04,0.1-0.07,0.22-0.07,0.33c0,3.77-0.14,2.63,1.88,3.03
		c0.57,0.12,0.57,0.01,0.9,0.59c0.21,0.36,0.48,0.67,0.48,1.3c0,1.57,0.17,31.59-0.21,34.08c-0.1,0.66-0.23,0.67-0.63,0.78
		c-0.33,0.09-0.8,0.16-1.26,0.2v3.65c0.56-0.01,1.24-0.16,1.71-0.16c1.58,0,3.63-0.11,5.14,0.13c1.15,0.18,0.93-0.57,0.93-2.92
		c0-0.32-0.13-0.39-0.23-0.66c-1.03,0-1.87-0.3-2.57-0.4c-0.27-2.01-0.24-3.25-0.23-5.32c0-0.85-0.08-1.08-0.08-1.85
		c-0.05-7.63,0-15.86,0-23.54c0.42,0.48,7.35,15.21,8.42,17.25c0.28,0.54,0.5,1.05,0.78,1.6c1.91,3.66,4.5,9.92,6.06,12.77
		c0.8,1.45,1.38,2.51,1.58,2.74c0.1,0.11,2.15,0.12,2.81,0.06c0.08,0.05,0.16,0.09,0.25,0.13V42.42z M170.39,43.05
		c-0.52-0.16-1.4-0.29-1.8-0.89c-0.46-0.68-1.92-6.65-2.25-7.98c-0.92-3.7-1.83-7.27-2.74-11c-1.46-5.97-3.24-13.32-4.8-19.31
		c-0.17-0.64-0.27-1.1-0.35-1.44h-2.22c-0.16,0.53-0.29,1.18-0.38,1.6c-0.98,4.22-2.19,8.65-3.19,12.77l-2.22,8.56
		c-0.82,3.14-2.1,8.21-2.95,11.17l-1.15,4.15c-0.57,1.6-2.45,1.78-4.3,1.9v3.72c1.7,0.61,4.32-0.32,5.4-0.87
		c0.85,0.24,5.1,2.24,5.1-0.12c0-3.44-0.1-2.39-1.37-2.72c-1.86-0.48-2.49,1.38-0.06-7.97c0.19-0.75,0.46-1.7,0.57-2.48h9.56
		c0.26,1.88,2.18,8.2,2.18,10.24c-0.34,0.01-0.27,0.1-0.62,0.13c-0.25,0.02-0.52-0.03-0.77,0.01c-0.46,0.06-0.83,0.13-1.4,0.13
		c-0.37,0.95-0.23,0.53-0.23,3.06c0,0.32,0.13,0.39,0.23,0.67c1.36,0,3.32-0.63,5.04-0.71c2.15-0.1,3.97,1.9,4.75,0.44V43.05z
		 M168.7,3.02c0,2.11-0.16,2.67,0.77,2.67c0.57,0,0.85,0.12,1.33,0.13c1.42,0.03,1.12,0.55,1.29,2.58c0.13,1.5-0.05,3.19,0.08,4.65
		c0.05,0.58,0.1,23.47-0.06,25.85c-0.08,1.26,0.02,2.66-0.48,3.3c-0.5,0.63-0.83,0.74-1.04,0.93l0,0v3.14
		c0.42,0.29,1.18-0.03,1.93-0.03c2.99,0,13.88,0.38,15.57-0.09c0.45-0.12,0.79-0.13,0.94-0.79l0.44-6.43
		c0.1-1.48,0.43-3.5,0.23-4.92c-0.47-0.38-0.87-0.27-1.48-0.27c-0.48,0-0.57,0.53-0.67,1.25l-0.89,5.79
		c-0.18,0.39-0.74,0.44-1.08,0.54c-2.4,0.68-5.53,0.53-8.01,0.53c-0.47,0-0.57-0.13-1.01-0.13l0-31.12c0-0.77,0.07-0.91,0.08-1.59
		c0.05-3.04-0.21-3.13,2.02-3.33c1.43-0.13,1.4,0.4,1.4-2.53c0-0.33-0.04-0.56-0.11-0.73h-11.14C168.74,2.58,168.7,2.75,168.7,3.02z
		 M64.89,12.73c-0.01,0.21-0.01,0.18-0.03,0.34c-0.07,0.55-0.15,0.51-0.34,0.62c-0.19,0.11-1.58,0.46-1.71-0.73
		c-0.07-0.61-0.08-1.3-0.1-1.96l-0.23-3.86l-5.83-0.4c0,1.27-0.08,2.03-0.08,3.32V36.8c0,5.55-0.04,5.88,1.63,5.85
		c0.57-0.01,0.92,0.13,1.55,0.13c0.11,0.27,0.23,0.35,0.23,0.66c0,2.49,0.13,2-0.23,2.92c-1.42,0-7.09-0.13-8.12-0.79
		c-0.69,0.15-1.48,0.75-1.89,0.79c-0.96,0.09-0.95-0.14-0.95-2.66c0-1.85,2.35-0.49,3.14-1.41c0.22-0.25,0.24-0.8,0.27-1.27
		c0.13-2.43,0.09-2.28,0.09-4.77l0-1.21h-4.44l-0.15,11.28h-0.67c-0.08,0.02-0.17,0.01-0.28,0h-0.28l0-0.04
		c-0.2-0.03-0.44-0.06-0.73-0.06c-0.78-0.01-1.34-0.13-2.18-0.13c-1.31,0-2.42,0.13-3.65,0.13c-1.58,0-3.03,0.73-3.03-0.93
		c0-3.47,0.12-2.4,1.38-2.7c2.1-0.49,2.24,1.15,0.67-5.59l-1.11-4.88h-9.56l-1.78,7.33c-0.21,0.87-0.4,1.57-0.4,2.77
		c0.79,0.31,1.75,0.4,2.72,0.4c0.18,0.46,0.31,0.51,0.31,1.33c0,1.73,0.08,1.41-0.31,2.39c-1.05,0-1.82-0.13-2.88-0.13
		c-4.35,0-8.56,0.53-12.84-1.1l-4.12,1.24c-1.03,0.05-1.95,0.3-1.95-0.94v-1.79c0.03-0.27,0.09-0.51,0.23-0.87
		c0.63,0,2.67-0.1,2.93-0.57c0.3-0.54,0.25-3.81,0.25-5.02c0-3.62,0.08-7.03,0.08-10.77c0-2.24,0.09-18.33-0.25-19.92
		c-0.19-0.87-1.87-0.83-2.4-0.82C7.34,5.7,7.02,5.63,7.02,4.75V2.96c0.02-0.18,0.05-0.34,0.11-0.53h15.67
		c0.2,0.07,0.4,0.15,0.59,0.25c2.52,1.23,4.46,4.65,4.46,9.39c0,8.49-4.41,14.09-8.55,14.09c-0.77,0-2.12-0.13-2.76-0.47
		c-0.49-0.26-0.74-2.95-0.74-3.25c0-0.12,0.32-0.67,0.39-0.67c0.33,0,0.91,0.31,1.31,0.42c1.21,0.34,2.17,0.38,3.28-0.55
		c0.46-0.38,1.03-1.05,1.33-1.71c1.74-3.77,1.78-11.34-1.75-13.4c-1.86-1.09-3.69-0.5-5.49,0.22c0,1.8-0.08,3.11-0.08,4.92v23.27
		c0,6.38,2.37,7.95,5.46,8.3c0.09-0.03,2.11-1.16,2.23-1.42c0.31-0.63,1.38-4.53,1.59-5.4l4.05-15.4c0.26-1.02,0.48-1.85,0.73-2.87
		c1.19-4.73,2.47-9.43,3.58-14.23c0.13-0.56,0.23-1.08,0.34-1.49h2.24l0.01,0.05l5.85,23.51c0.24,0.94,0.45,1.8,0.68,2.7l2.77,10.95
		c0.69,2.47,0.66,2.92,2.03,3l0.91-9h0.31h0.37h4.37l0.07-19.17c0-1.04-0.08-1.62-0.08-2.52c0-1.9-0.08-3.39-0.08-5.19h-3.19
		c-0.95,0-1.81,0.27-2.64,0.27c-0.57,4.21,0.05,6.78-1.24,6.78c-0.96,0-0.76,0.11-1.32-0.53c0-1.88,0.01-3.77-0.07-5.46
		c-0.04-0.88,0.02-1.89,0-2.79c-0.03-0.81-0.08-1.51-0.06-2.5l0.04-0.09h7.4c0.7,0.03,1.41,0.06,2.18,0.06l2.11-0.06h9.55
		L64.89,12.73z M91.13,35.76l-0.14,10.57H90.5c-0.07,0.01-0.16,0.01-0.25,0L86.93,46c-1.26,0.54-1.36,0.89-2.19-0.86l-2.72-6.24
		c-1.3-3.25-2.67-6.27-4.09-9.36c-0.21-0.45-2.84-5.67-2.84-6.04c0-0.66,0.15-1.7,0.56-1.84c0.53-0.19,5.16,1.33,6.88-4.19
		c0.71-2.26,0.84-5.76,0.06-8c-1.48-4.24-5.25-3.72-7.73-2.73c0,0.78-0.08,1.1-0.08,1.99c0,0.64,0.02,1.33-0.03,1.94l-0.12,7.9
		c0,7.7-0.01,14.74,0.16,22.47c0.02,0.94,0.1,1.26,0.56,1.44c0.55,0.21,1.89,0.29,2.55,0.29c0.11,0.27,0.23,0.35,0.23,0.66
		c0,2.78,0.19,3.06-1.24,2.93c-2.16,0.03-3.76,0.84-7.58-0.57c-0.83,0.64-1.26,0.57-2.13,0.57c-0.11-0.27-0.23-0.35-0.23-0.67
		c0-2.49-0.13-2,0.23-2.93c0.51,0,2.71-0.04,2.95-0.67c0.41-1.06,0.24-27.93,0.24-31.38L70.19,7c-0.09-0.86-0.09-0.88-0.61-1.09
		l-2.42-0.11V2.43h15.55C83.59,2.7,84.4,3.12,85,3.74c2,2.07,2.91,5.72,2.66,9.9c-0.21,3.58-1.78,6.89-3.49,8.66
		c-0.66,0.68-1.5,1.31-2.26,1.72c-0.26,0.14-0.54,0.23-0.77,0.41l2.27,5.17c0.2,0.46,0.35,0.83,0.57,1.29l5.19,11.47
		c0.2,0.34,0.07,0.38,0.38,0.39c0.1-1.57,1.14-8.7,0.95-9.63c-0.64-3.1-0.83-5.85-0.83-9.62c0-6.93,1.68-12.99,4.83-17.27
		c2.34-3.17,5.36-5.07,8.54-5.07c3.33,0,5.89,0.6,8.65,3.41c3.4,3.47,5.49,10.12,5.49,17.06c0,4.41-0.17,8.02-1.27,11.79
		c-0.46,1.57-1.29,4.09-2.01,5.33c-0.2,0.34-0.22,0.44-0.39,0.79c-0.41,0.84-1.65,2.65-2.25,3.34c-0.35,0.41-0.67,0.76-1.05,1.13
		c-1.84,1.76-4.27,3.19-6.48,3.15c-1.05-0.02-2.08,0.07-3.17-0.16C96.32,46.14,92.92,42.13,91.13,35.76z M95.73,33.63l0.42,1.43
		c0.18,0.56,0.37,1.07,0.57,1.51c0.7,1.59,1.68,3.41,2.74,4.35c0.61,0.54,1.12,0.99,1.87,1.33c1.99,0.9,4.92,0.74,6.62-1.04
		c0.27-0.28,0.47-0.42,0.73-0.75c0.73-0.91,1.11-1.51,1.68-2.72c1.17-2.5,2.09-7.22,2.09-11.72v-2.66c0-4.98-0.98-10.03-2.85-13.48
		l-0.32-0.52c-0.74-1.19-1.24-1.79-2.25-2.53c-3.46-2.56-7.78-1.87-10.5,3.13c-0.67,1.23-1.24,3.22-1.58,5
		c-0.49,2.53-0.61,4.61-0.61,7.6C94.33,26.33,94.91,30.51,95.73,33.63z"/>
	<path class="st0" d="M186.99,6.28c1.91,0,3.45,1.54,3.45,3.45s-1.54,3.45-3.45,3.45c-1.91,0-3.45-1.54-3.45-3.45
		S185.08,6.28,186.99,6.28 M185.88,9.39h0.67c0.43,0,0.7-0.02,0.81-0.05c0.11-0.04,0.19-0.1,0.25-0.19c0.06-0.09,0.09-0.2,0.09-0.34
		c0-0.15-0.04-0.27-0.12-0.37c-0.08-0.09-0.19-0.15-0.34-0.18c-0.07-0.01-0.29-0.02-0.66-0.02h-0.71V9.39z M184.97,11.97V7.49h1.9
		c0.48,0,0.83,0.04,1.04,0.12c0.22,0.08,0.39,0.22,0.52,0.43c0.13,0.21,0.2,0.44,0.2,0.71c0,0.34-0.1,0.61-0.29,0.83
		c-0.2,0.22-0.49,0.36-0.88,0.41c0.19,0.11,0.36,0.24,0.48,0.38c0.13,0.14,0.3,0.38,0.51,0.73l0.55,0.87h-1.08l-0.65-0.98
		c-0.23-0.35-0.39-0.57-0.48-0.66c-0.09-0.09-0.18-0.15-0.27-0.19c-0.1-0.03-0.25-0.05-0.46-0.05h-0.18v1.87H184.97z M186.99,5.39
		c2.4,0,4.35,1.95,4.35,4.35c0,2.4-1.95,4.35-4.35,4.35c-2.4,0-4.35-1.95-4.35-4.35C182.64,7.33,184.59,5.39,186.99,5.39z"/>
</g>
</svg>
